# xmcd
#
# Track frame offsets:
#       150
#       12073
#       24286
#       45054
#       55945
#       68148
#       79214
#       93122
#       104820
#       118043
#
# Disc length: 1758 seconds
#
# Revision: 6
# Processed by: cddbd v1.5.2PL0 Copyright (c) Steve Scherf et al.
# Submitted via: FreeDbEdit v0.1
# Normalized: r3:DSETVAR1,TDELIM( - ),TSWAP
#
DISCID=7006dc0a
DTITLE=Various Artist - A Country Christmas
DYEAR=1900
DGENRE=Country
TTITLE0=Dwight Yoakum - Santa Claus Is Back in Town
TTITLE1=George Strait - Away in a Manger
TTITLE2=Vince Gill - Do You Hear What I Hear
TTITLE3=Emmylou Harris - Light of the Stable
TTITLE4=Kenny Rogers - The First Noel
TTITLE5=Travis Tritt - Santa Looked a Lot Like Daddy
TTITLE6=Lorrie Morgan - Sleigh Ride
TTITLE7=Randy Travis - Pretty Paper
TTITLE8=The Judds - Silver Bells
TTITLE9=Sawyer Brown - Please Come Home for Christmas
EXTD=ID3G:   2
EXTT0=
EXTT1=
EXTT2=
EXTT3=
EXTT4=
EXTT5=
EXTT6=
EXTT7=
EXTT8=
EXTT9=
PLAYORDER=
